<svg width="61" height="62" viewBox="0 0 61 62" fill="none" xmlns="http://www.w3.org/2000/svg">
<g id="back_to_top">
<path id="Line 5 (Stroke)" fill-rule="evenodd" clip-rule="evenodd" d="M16.8502 22.6252L29.135 10.3442C29.8889 9.5906 31.1112 9.5906 31.865 10.3442L44.1499 22.6252C44.9037 23.3788 44.9037 24.6007 44.1499 25.3543C43.396 26.1079 42.1738 26.1079 41.4199 25.3543L32.4304 16.3676V50.3041C32.4304 51.3699 31.5662 52.2339 30.5 52.2339C29.4339 52.2339 28.5697 51.3699 28.5697 50.3041V16.3676L19.5802 25.3543C18.8263 26.1079 17.604 26.1079 16.8502 25.3543C16.0963 24.6007 16.0963 23.3788 16.8502 22.6252Z" fill="#76ABAE"/>
<path id="Ellipse 3 (Stroke)" fill-rule="evenodd" clip-rule="evenodd" d="M30.5 58.8139C46.0653 58.8139 58.6835 46.1957 58.6835 30.6304C58.6835 15.065 46.0653 2.44683 30.5 2.44683C14.9347 2.44683 2.31646 15.065 2.31646 30.6304C2.31646 46.1957 14.9347 58.8139 30.5 58.8139ZM30.5 61.1304C47.3447 61.1304 61 47.4751 61 30.6304C61 13.7857 47.3447 0.130371 30.5 0.130371C13.6553 0.130371 0 13.7857 0 30.6304C0 47.4751 13.6553 61.1304 30.5 61.1304Z" fill="#76ABAE"/>
</g>
</svg>
